<mxfile host="app.diagrams.net" modified="2024-03-22T13:08:07.454Z" agent="Mozilla/5.0 (Windows NT 10.0; Win64; x64) AppleWebKit/537.36 (KHTML, like Gecko) Chrome/122.0.0.0 Safari/537.36" etag="EjBYMsRUaPxBoYtu_yp8" version="24.0.7" type="device">
  <diagram name="Trang-1" id="GZO-i7XrI-s5nNAaR_i6">
    <mxGraphModel dx="818" dy="837" grid="1" gridSize="10" guides="1" tooltips="1" connect="1" arrows="1" fold="1" page="1" pageScale="1" pageWidth="827" pageHeight="1169" math="0" shadow="0">
      <root>
        <mxCell id="0" />
        <mxCell id="1" parent="0" />
        <mxCell id="RZUdi40AoCmKY5TDaJ8q-1" value="Cập nhật sản phẩm" style="rounded=1;whiteSpace=wrap;html=1;" vertex="1" parent="1">
          <mxGeometry x="80" y="90" width="120" height="60" as="geometry" />
        </mxCell>
        <mxCell id="RZUdi40AoCmKY5TDaJ8q-2" value="Danh mục sản phẩm" style="ellipse;whiteSpace=wrap;html=1;" vertex="1" parent="1">
          <mxGeometry x="650" y="80" width="120" height="80" as="geometry" />
        </mxCell>
        <mxCell id="RZUdi40AoCmKY5TDaJ8q-3" value="" style="endArrow=classic;html=1;rounded=0;exitX=0;exitY=0.5;exitDx=0;exitDy=0;entryX=1;entryY=0.5;entryDx=0;entryDy=0;" edge="1" parent="1" source="RZUdi40AoCmKY5TDaJ8q-2" target="RZUdi40AoCmKY5TDaJ8q-1">
          <mxGeometry width="50" height="50" relative="1" as="geometry">
            <mxPoint x="360" y="240" as="sourcePoint" />
            <mxPoint x="410" y="190" as="targetPoint" />
          </mxGeometry>
        </mxCell>
        <mxCell id="RZUdi40AoCmKY5TDaJ8q-4" value="Kho" style="ellipse;whiteSpace=wrap;html=1;" vertex="1" parent="1">
          <mxGeometry x="560" y="210" width="120" height="80" as="geometry" />
        </mxCell>
        <mxCell id="RZUdi40AoCmKY5TDaJ8q-5" value="" style="endArrow=classic;html=1;rounded=0;exitX=1;exitY=1;exitDx=0;exitDy=0;entryX=0;entryY=0.5;entryDx=0;entryDy=0;" edge="1" parent="1" source="RZUdi40AoCmKY5TDaJ8q-1" target="RZUdi40AoCmKY5TDaJ8q-4">
          <mxGeometry width="50" height="50" relative="1" as="geometry">
            <mxPoint x="330" y="270" as="sourcePoint" />
            <mxPoint x="380" y="220" as="targetPoint" />
          </mxGeometry>
        </mxCell>
        <mxCell id="RZUdi40AoCmKY5TDaJ8q-6" value="Nhà quản trị" style="whiteSpace=wrap;html=1;aspect=fixed;" vertex="1" parent="1">
          <mxGeometry x="670" y="360" width="80" height="80" as="geometry" />
        </mxCell>
        <mxCell id="RZUdi40AoCmKY5TDaJ8q-7" value="Cập nhật hóa đơn" style="rounded=1;whiteSpace=wrap;html=1;" vertex="1" parent="1">
          <mxGeometry x="220" y="460" width="120" height="60" as="geometry" />
        </mxCell>
        <mxCell id="RZUdi40AoCmKY5TDaJ8q-8" value="Cập nhật số lượng" style="rounded=1;whiteSpace=wrap;html=1;" vertex="1" parent="1">
          <mxGeometry x="170" y="640" width="120" height="60" as="geometry" />
        </mxCell>
        <mxCell id="RZUdi40AoCmKY5TDaJ8q-9" value="Hóa đơn" style="ellipse;whiteSpace=wrap;html=1;" vertex="1" parent="1">
          <mxGeometry x="10" y="545" width="120" height="80" as="geometry" />
        </mxCell>
        <mxCell id="RZUdi40AoCmKY5TDaJ8q-10" value="Danh mục sản phẩm" style="ellipse;whiteSpace=wrap;html=1;" vertex="1" parent="1">
          <mxGeometry x="630" y="730" width="120" height="80" as="geometry" />
        </mxCell>
        <mxCell id="RZUdi40AoCmKY5TDaJ8q-11" value="" style="endArrow=classic;html=1;rounded=0;exitX=0;exitY=0.5;exitDx=0;exitDy=0;entryX=0.5;entryY=1;entryDx=0;entryDy=0;" edge="1" parent="1" source="RZUdi40AoCmKY5TDaJ8q-6" target="RZUdi40AoCmKY5TDaJ8q-1">
          <mxGeometry width="50" height="50" relative="1" as="geometry">
            <mxPoint x="500" y="420" as="sourcePoint" />
            <mxPoint x="550" y="370" as="targetPoint" />
            <Array as="points">
              <mxPoint x="140" y="400" />
            </Array>
          </mxGeometry>
        </mxCell>
        <mxCell id="RZUdi40AoCmKY5TDaJ8q-12" value="" style="endArrow=classic;html=1;rounded=0;entryX=1;entryY=0.5;entryDx=0;entryDy=0;exitX=0.25;exitY=1;exitDx=0;exitDy=0;" edge="1" parent="1" source="RZUdi40AoCmKY5TDaJ8q-6" target="RZUdi40AoCmKY5TDaJ8q-7">
          <mxGeometry width="50" height="50" relative="1" as="geometry">
            <mxPoint x="540" y="550" as="sourcePoint" />
            <mxPoint x="590" y="500" as="targetPoint" />
            <Array as="points">
              <mxPoint x="690" y="490" />
            </Array>
          </mxGeometry>
        </mxCell>
        <mxCell id="RZUdi40AoCmKY5TDaJ8q-13" value="" style="endArrow=classic;html=1;rounded=0;exitX=0;exitY=0.75;exitDx=0;exitDy=0;entryX=0.5;entryY=0;entryDx=0;entryDy=0;" edge="1" parent="1" source="RZUdi40AoCmKY5TDaJ8q-7" target="RZUdi40AoCmKY5TDaJ8q-9">
          <mxGeometry width="50" height="50" relative="1" as="geometry">
            <mxPoint x="110" y="490" as="sourcePoint" />
            <mxPoint x="160" y="440" as="targetPoint" />
            <Array as="points">
              <mxPoint x="150" y="510" />
              <mxPoint x="70" y="510" />
            </Array>
          </mxGeometry>
        </mxCell>
        <mxCell id="RZUdi40AoCmKY5TDaJ8q-14" value="" style="endArrow=classic;html=1;rounded=0;exitX=0.5;exitY=1;exitDx=0;exitDy=0;entryX=1;entryY=0.5;entryDx=0;entryDy=0;" edge="1" parent="1" source="RZUdi40AoCmKY5TDaJ8q-6" target="RZUdi40AoCmKY5TDaJ8q-8">
          <mxGeometry width="50" height="50" relative="1" as="geometry">
            <mxPoint x="470" y="630" as="sourcePoint" />
            <mxPoint x="520" y="580" as="targetPoint" />
            <Array as="points">
              <mxPoint x="710" y="670" />
            </Array>
          </mxGeometry>
        </mxCell>
        <mxCell id="RZUdi40AoCmKY5TDaJ8q-15" value="" style="endArrow=classic;html=1;rounded=0;exitX=0;exitY=0.5;exitDx=0;exitDy=0;entryX=0.5;entryY=1;entryDx=0;entryDy=0;" edge="1" parent="1" source="RZUdi40AoCmKY5TDaJ8q-10" target="RZUdi40AoCmKY5TDaJ8q-8">
          <mxGeometry width="50" height="50" relative="1" as="geometry">
            <mxPoint x="380" y="810" as="sourcePoint" />
            <mxPoint x="430" y="760" as="targetPoint" />
            <Array as="points">
              <mxPoint x="230" y="770" />
            </Array>
          </mxGeometry>
        </mxCell>
        <mxCell id="RZUdi40AoCmKY5TDaJ8q-16" value="" style="endArrow=classic;html=1;rounded=0;exitX=1;exitY=0.75;exitDx=0;exitDy=0;entryX=0.75;entryY=1;entryDx=0;entryDy=0;" edge="1" parent="1" source="RZUdi40AoCmKY5TDaJ8q-8" target="RZUdi40AoCmKY5TDaJ8q-6">
          <mxGeometry width="50" height="50" relative="1" as="geometry">
            <mxPoint x="360" y="650" as="sourcePoint" />
            <mxPoint x="410" y="600" as="targetPoint" />
            <Array as="points">
              <mxPoint x="730" y="690" />
            </Array>
          </mxGeometry>
        </mxCell>
        <mxCell id="RZUdi40AoCmKY5TDaJ8q-17" value="TT hóa đơn" style="text;html=1;align=center;verticalAlign=middle;resizable=0;points=[];autosize=1;strokeColor=none;fillColor=none;" vertex="1" parent="1">
          <mxGeometry x="45" y="458" width="90" height="30" as="geometry" />
        </mxCell>
        <mxCell id="RZUdi40AoCmKY5TDaJ8q-18" value="Yêu cầu thông tin sản phẩm" style="text;html=1;align=center;verticalAlign=middle;resizable=0;points=[];autosize=1;strokeColor=none;fillColor=none;" vertex="1" parent="1">
          <mxGeometry x="295" y="618" width="170" height="30" as="geometry" />
        </mxCell>
        <mxCell id="RZUdi40AoCmKY5TDaJ8q-19" value="Thông tin sản phẩm" style="text;html=1;align=center;verticalAlign=middle;resizable=0;points=[];autosize=1;strokeColor=none;fillColor=none;" vertex="1" parent="1">
          <mxGeometry x="345" y="688" width="130" height="30" as="geometry" />
        </mxCell>
        <mxCell id="RZUdi40AoCmKY5TDaJ8q-20" value="Thông tin sản phẩm" style="text;html=1;align=center;verticalAlign=middle;resizable=0;points=[];autosize=1;strokeColor=none;fillColor=none;" vertex="1" parent="1">
          <mxGeometry x="315" y="788" width="130" height="30" as="geometry" />
        </mxCell>
        <mxCell id="RZUdi40AoCmKY5TDaJ8q-21" value="Thông tin hoa đơn" style="text;html=1;align=center;verticalAlign=middle;resizable=0;points=[];autosize=1;strokeColor=none;fillColor=none;" vertex="1" parent="1">
          <mxGeometry x="370" y="488" width="120" height="30" as="geometry" />
        </mxCell>
        <mxCell id="RZUdi40AoCmKY5TDaJ8q-22" value="Cập nhật sản phẩm mới" style="text;html=1;align=center;verticalAlign=middle;resizable=0;points=[];autosize=1;strokeColor=none;fillColor=none;" vertex="1" parent="1">
          <mxGeometry x="195" y="348" width="150" height="30" as="geometry" />
        </mxCell>
        <mxCell id="RZUdi40AoCmKY5TDaJ8q-23" value="Thông tin sản phẩm" style="text;html=1;align=center;verticalAlign=middle;resizable=0;points=[];autosize=1;strokeColor=none;fillColor=none;" vertex="1" parent="1">
          <mxGeometry x="235" y="198" width="130" height="30" as="geometry" />
        </mxCell>
        <mxCell id="RZUdi40AoCmKY5TDaJ8q-24" value="Thông tin sản phẩm" style="text;html=1;align=center;verticalAlign=middle;resizable=0;points=[];autosize=1;strokeColor=none;fillColor=none;" vertex="1" parent="1">
          <mxGeometry x="285" y="68" width="130" height="30" as="geometry" />
        </mxCell>
      </root>
    </mxGraphModel>
  </diagram>
</mxfile>
